<?xml version="1.0" encoding="UTF-8" standalone="no"?><!DOCTYPE svg PUBLIC "-//W3C//DTD SVG 1.1//EN" "http://www.w3.org/Graphics/SVG/1.1/DTD/svg11.dtd"><svg width="100%" height="100%" viewBox="0 0 1280 800" version="1.1" xmlns="http://www.w3.org/2000/svg" xmlns:xlink="http://www.w3.org/1999/xlink" xml:space="preserve" xmlns:serif="http://www.serif.com/" style="fill-rule:evenodd;clip-rule:evenodd;stroke-linejoin:round;stroke-miterlimit:2;"><g id="Gemini_Generated_Image_47bt1h47bt1h47bt.png"><path d="M757.33,261.531c-0.03,0.214 0.401,0.319 0.371,0.533c-0.248,1.746 -0.342,1.703 -1.134,3.264c-10.78,21.236 -18.787,41.353 -23.702,99.847c-7.526,89.562 -11.875,104.581 -17.944,129.961c-9.762,40.822 -27.861,73.13 -39.066,85.962c-0.769,0.113 -1.509,0.385 -2.278,0.499c-2.062,0.304 -71.46,0.087 -98.7,0.145c-20.769,0.044 -20.784,-0.474 -22.547,-0.094c-0.325,0.07 -0.52,0.461 -0.845,0.531c-4.466,-4.226 -14.198,-22.723 -20.174,-42.052c0.992,-0.446 0.835,-1.064 3.562,-1.036c6.2,0.063 40.506,0.413 77.509,-0.003c4.346,-0.049 4.043,-3.586 5.386,-7.575c6.161,-18.305 9.823,-22.96 11.162,-24.662c6.975,-2.82 10.094,0.139 17.186,-1.761c16.31,-4.371 15.045,-28.509 -0.11,-31.888c-5.374,-1.198 -125.07,0.265 -133.512,-0.982c-0.315,-0.396 -0.781,-0.654 -1.096,-1.05c-0.885,-1.112 -4.041,-12.766 -10.279,-28.542c-1.271,-3.215 -10.382,-26.254 -20.875,-37.846c-5.734,-6.335 -10.934,-3.604 -25.434,-4.142c-1.659,-0.062 -1.878,-0.717 -2.159,-0.824c1.877,-7.066 59.921,-200.056 71.926,-241.031c0.638,-2.179 5.158,-17.606 21.558,-18.458c2.202,-0.114 119.965,-0.085 123.741,-0.079c32.809,0.048 397.812,-0.057 399.992,0.031c9.585,0.388 17.051,8.815 16.248,18.597c-0.525,6.398 -36.49,124.794 -49.505,170.139c-9.437,32.878 -15.437,52.318 -16.206,55.013c-6.064,21.258 -35.748,121.873 -38.874,132.466c-10.202,34.58 -10.302,34.512 -11.139,37.53c-1.67,6.018 -4.174,23.581 -23.032,27.271c-6.263,1.225 -98.524,-0.211 -113.89,0.793c0.026,-0.105 0.258,-0.055 0.284,-0.16c0.045,-0.181 -0.221,-1.592 1.452,-4.121c0.109,-0.165 0.256,-0.305 0.356,-0.477c12.364,-21.32 20.463,-36.503 29.171,-124.716c7.421,-75.172 8.77,-107.697 39.383,-183.533c0.843,-2.089 1.008,-1.966 2.018,-3.937l1.27,-1.359c19.331,-0.562 25.096,-26.024 11.062,-32.051c-3.927,-1.687 -4.13,-0.842 -93.592,-0.926c-4.701,-0.004 -53.416,-0.05 -58.762,0.041c-17.549,0.299 -23.235,22.934 -8.783,30.684Z" style="fill:#234051;"/><path d="M766.765,248.436c0.077,-0.065 0.863,-1.652 3.125,-1.872c2.157,-0.209 105.786,0.001 114.985,0.019c26.696,0.054 27.397,-0.424 27.716,0.938c0.5,2.133 -0.216,2.012 -1.058,4.027c-1.421,3.404 -2.434,6.371 -3.373,8.392c-1.263,2.718 -0.563,2.859 -0.756,3.842c-0.423,0.453 -0.847,0.906 -1.27,1.359c-1.01,1.971 -1.175,1.848 -2.018,3.937c-30.614,75.836 -31.962,108.361 -39.383,183.533c-8.709,88.212 -16.807,103.395 -29.171,124.716c-0.1,0.172 -0.247,0.311 -0.356,0.477c-1.673,2.529 -1.407,3.94 -1.452,4.121c-0.026,0.105 -0.258,0.055 -0.284,0.16c-0.407,0.226 -1.284,0.154 -2.378,1.764c-3.645,5.369 -5.07,6.631 -10.501,13.326c-5.733,7.066 -21.027,20.788 -29.766,26.244c-40.809,25.477 -68.593,23.686 -98.452,23.819c-9.427,0.042 -9.39,-0.063 -18.73,-1.047c-0.757,-0.2 -0.6,-0.49 -1.332,-0.683c-1.828,-0.484 -1.837,-0.221 -3.645,-0.635c-26.344,-6.021 -47.743,-13.855 -57.563,-16.753c5.346,-1.692 32.362,-14.272 49.651,-30.876c5.017,-4.819 12.266,-11.822 15.099,-16.147c11.205,-12.832 29.304,-45.14 39.066,-85.962c6.069,-25.381 10.419,-40.4 17.944,-129.961c4.915,-58.494 12.922,-78.611 23.702,-99.847c0.792,-1.561 0.886,-1.518 1.134,-3.264c0.03,-0.214 -0.401,-0.319 -0.371,-0.533c3.791,-1.997 2.77,-3.013 9.436,-13.095Z" style="fill:#19a2a4;"/><path d="M452.651,399.815c0.281,0.107 0.5,0.763 2.159,0.824c14.499,0.538 19.699,-2.192 25.434,4.142c10.493,11.592 19.603,34.631 20.875,37.846c6.238,15.776 9.395,27.43 10.279,28.542c0.315,0.396 0.781,0.654 1.096,1.05c-0.1,0.953 -0.719,0.704 -0.819,1.656c-0.011,0.1 0.183,0.026 0.524,1.146c0.015,0.049 2.725,10.925 3.795,11.844c0.411,0.353 0.983,0.484 1.394,0.837c-0.665,1.529 -1.02,1.607 0.034,4.909c2.353,7.373 3.274,11.97 5.46,18.572c1.859,5.612 3.917,3.627 9.268,1.042c3.305,-1.597 3.081,-1.956 6.36,-3.557c4.007,-1.957 2.679,-3.054 3.569,-7.429c1.385,-2.387 0.959,-2.757 3.249,-4.252c3.218,-2.101 5.653,0.093 6.018,1.844c1.01,4.844 -5.996,8.97 -6.016,8.996c-1.524,1.959 2.957,8 8.217,9.971c21.556,8.077 45.911,-5.887 46.283,-6.439c0.201,-0.297 -0.425,-4.843 1.536,-7.272c5.14,-6.367 11.104,-1.262 9.195,3.34c-1.868,4.503 -7.694,4.704 -5.15,7.417c3.523,3.757 9.26,0.226 10.227,1.855c1.442,2.429 -6.695,6.262 -13.116,-0.513c-1.644,-1.735 -2.046,-1.242 -5.157,0.161c-3.023,1.363 -23.537,10.614 -41.068,5.656c-10.544,-2.982 -12.556,-8.217 -13.842,-10.72c-0.728,-1.418 -1.128,-0.64 -2.561,0.13c-6.166,3.312 -6.047,3.508 -12.555,6.147c-2.93,1.188 -1.427,4.14 -0.882,6.243c0.286,1.106 2.654,10.253 3.922,13.729c0.185,0.506 0.679,0.861 0.861,1.368c0.138,0.386 -0.068,0.841 0.07,1.227c5.977,19.33 15.709,37.827 20.174,42.052c0.104,0.344 -0.307,0.65 0.582,1.932c5.972,8.613 22.264,31.5 55.445,43.119c1.586,0.555 1.571,0.455 3.592,0.892c9.82,2.898 31.219,10.732 57.563,16.753c1.809,0.413 1.817,0.151 3.645,0.635c0.732,0.194 0.575,0.483 1.332,0.683c-1.899,-0.037 -1.869,-0.179 -3.76,0.058c-4.268,0.536 -6.539,0.821 -53.758,0.763c-33.383,-0.041 -33.352,0.113 -36.251,0.034c-45.497,-1.251 -83.146,6.934 -131.707,-24.032c-0.205,-0.172 -0.2,-0.159 -3.529,-2.587c-26.337,-19.209 -43.697,-42.105 -60.142,-90.169c-17.642,-51.561 -15.217,-60 -27.944,-92.801c-1.857,-4.785 -12.898,-38.129 -32.658,-20.812c-0.005,-0.487 -0.939,-0.628 -0.944,-1.114c-0.007,-0.711 1.698,-2.727 1.878,-2.94c1.977,-2.338 6.599,-9.092 17.536,-11.275c2.845,-0.568 2.85,-0.569 36.261,-0.594c65.551,-0.049 65.534,0.088 71.232,0.057c2.216,-0.012 2.358,-0.815 2.793,-0.966Z" style="fill:#b2d6ec;"/><path d="M323.894,416.646c19.76,-17.316 30.801,16.027 32.658,20.812c12.727,32.801 10.303,41.24 27.944,92.801c16.445,48.065 33.805,70.96 60.142,90.169c3.328,2.428 3.323,2.415 3.529,2.587c-2.384,2.105 -2.641,1.702 -5.798,1.691c-65.635,-0.226 -65.6,0.608 -131.239,0.016c-8.237,-0.074 -8.212,-0.185 -13.737,0.232c-3.083,0.232 -3.296,-0.785 -3.717,-0.956c2.138,-1.338 16.08,-5.952 23.077,-31.544c0.212,-0.777 0.341,-1.576 0.554,-2.353c1.463,-6.202 1.411,-6.189 2.192,-12.491c0.629,-8.835 0.443,-10.603 -0.186,-19.904c-2.709,-29.219 -16.031,-83.511 -5.608,-120.06c1.911,-6.699 3.616,-14.547 10.19,-21.002Z" style="fill:#224051;"/><path d="M903.332,406.526c-0.868,-2.048 -2.867,-5.27 -3.492,-13.899c-0.83,-11.448 4.818,-22.758 8.621,-27.624c0.182,-0.233 11.557,-16.389 30.26,-19.266c38.223,-5.882 54.128,39.01 28.392,65.383c-19.874,20.366 -41.177,14.535 -45.878,12.481c-12.146,-5.306 -15.57,-12.758 -17.902,-17.074Z" style="fill:#def4f4;"/><path d="M517.388,487.702c14.846,0.082 110.66,0.535 119.996,0.34c3.699,-0.077 6.292,-1.375 4.967,2.069c-0.353,0.919 -1.262,0.129 -8.351,9.037c-3.492,4.388 -3.373,4.45 -5.07,7.702c-1.339,1.702 -5.001,6.357 -11.162,24.662c-1.343,3.989 -1.04,7.526 -5.386,7.575c-37.003,0.417 -71.309,0.067 -77.509,0.003c-2.728,-0.028 -2.57,0.59 -3.562,1.036c-0.138,-0.386 0.068,-0.841 -0.07,-1.227c-0.182,-0.507 -0.677,-0.862 -0.861,-1.368c-1.267,-3.476 -3.635,-12.623 -3.922,-13.729c-0.545,-2.103 -2.048,-5.055 0.882,-6.243c6.507,-2.639 6.389,-2.835 12.555,-6.147c1.433,-0.77 1.832,-1.548 2.561,-0.13c1.286,2.503 3.298,7.738 13.842,10.72c17.531,4.959 38.045,-4.292 41.068,-5.656c3.112,-1.403 3.513,-1.896 5.157,-0.161c6.421,6.774 14.558,2.942 13.116,0.513c-0.967,-1.629 -6.704,1.901 -10.227,-1.855c-2.544,-2.712 3.281,-2.914 5.15,-7.417c1.909,-4.601 -4.055,-9.706 -9.195,-3.34c-1.961,2.429 -1.335,6.974 -1.536,7.272c-0.372,0.551 -24.727,14.516 -46.283,6.439c-5.26,-1.971 -9.741,-8.012 -8.217,-9.971c0.02,-0.025 7.026,-4.151 6.016,-8.996c-0.365,-1.751 -2.8,-3.945 -6.018,-1.844c-2.29,1.495 -1.863,1.865 -3.249,4.252c-0.89,4.376 0.438,5.472 -3.569,7.429c-3.279,1.601 -3.055,1.961 -6.36,3.557c-5.351,2.585 -7.409,4.569 -9.268,-1.042c-2.187,-6.602 -3.107,-11.199 -5.46,-18.572c-1.054,-3.302 -0.699,-3.38 -0.034,-4.909Z" style="fill:#6f76ea;"/><path d="M319.311,557.707c0.629,9.301 0.815,11.069 0.186,19.904c-4.093,-0.131 -40.755,-0.873 -43.267,0.301c-5.298,2.476 -5.792,12.037 3.642,12.259c7.533,0.177 31.524,0.061 32.509,0.082c2.485,0.052 2.438,-0.296 4.925,-0.151c-0.212,0.777 -0.341,1.576 -0.554,2.353c-6.996,25.592 -20.939,30.206 -23.077,31.544c-5.612,0.805 -5.6,0.38 -11.292,0.414c-2.51,0.015 -2.478,0.2 -4.994,0.235c0.78,-1.252 6.555,-6.057 -0.336,-18.119c-7.842,-13.728 -10.181,-12.849 -11.919,-14.004c-1.527,-1.015 -18.613,-23.93 -66.4,-32.956c0.466,-0.303 0.553,0.232 1.038,-0.083c0.86,-0.559 0.469,-0.915 1.353,-1.471c0.74,-0.466 94.696,-0.267 100,-0.294c16.638,-0.085 16.624,-0.23 18.07,-0.234c0.083,-0 0.033,0.22 0.116,0.22Z" style="fill:#b0d5eb;"/><path d="M766.765,248.436c-6.666,10.082 -5.644,11.098 -9.436,13.095c-14.452,-7.75 -8.766,-30.385 8.783,-30.684c5.346,-0.091 54.061,-0.045 58.762,-0.041c89.462,0.084 89.665,-0.761 93.592,0.926c14.034,6.027 8.268,31.489 -11.062,32.051c0.194,-0.983 -0.506,-1.124 0.756,-3.842c0.939,-2.022 1.952,-4.988 3.373,-8.392c0.841,-2.015 1.558,-1.895 1.058,-4.027c-0.319,-1.362 -1.02,-0.884 -27.716,-0.938c-9.199,-0.019 -112.829,-0.228 -114.985,-0.019c-2.263,0.219 -3.048,1.807 -3.125,1.872Z" style="fill:#dff3f4;"/><path d="M198.735,559.569c47.787,9.026 64.872,31.941 66.4,32.956c1.738,1.155 4.077,0.276 11.919,14.004c6.891,12.063 1.117,16.867 0.336,18.119c-1.288,-0.036 -2.576,-0.072 -3.864,-0.107c0.309,-0.395 1.043,-0.264 1.352,-0.659c0.221,-0.282 0.13,-0.294 2.113,-3.943c2.119,-3.898 -2.139,-11.311 -2.542,-12.09c-3.635,-7.03 -9.578,-12.928 -9.581,-12.93c-1.886,-1.368 -48.34,-0.543 -48.451,-0.478c-0.951,0.566 -1.979,1.422 5.306,12.773c0.056,0.088 7.047,10.705 17.293,14.875c0.66,0.268 1.396,0.351 2.021,0.693c0.187,0.102 0.087,0.504 0.289,0.57c0.264,0.087 0.536,-0.274 0.806,-0.21c0.189,0.045 0.164,0.383 0.333,0.479c0.561,0.317 0.61,0.055 1.134,0.351c-0.058,0.023 -1.036,1.155 -3.741,1.005c-19.553,-1.087 -20.483,1.116 -26.146,-3.701c-3.461,-2.944 -27.625,-22.646 -31.729,-46.085c-1.542,-8.803 1.308,-17.779 10.448,-16.832c3.212,0.332 3.14,0.476 6.304,1.211Z" style="fill:#264353;"/><path d="M512.494,472.219c8.443,1.246 128.138,-0.217 133.512,0.982c15.155,3.379 16.42,27.517 0.11,31.888c-7.092,1.901 -10.21,-1.059 -17.186,1.761c1.697,-3.252 1.578,-3.315 5.07,-7.702c7.089,-8.907 7.997,-8.118 8.351,-9.037c1.325,-3.445 -1.268,-2.146 -4.967,-2.069c-9.336,0.195 -105.15,-0.258 -119.996,-0.34c-0.411,-0.353 -0.983,-0.484 -1.394,-0.837c-1.07,-0.918 -3.78,-11.795 -3.795,-11.844c-0.341,-1.12 -0.535,-1.046 -0.524,-1.146c0.1,-0.951 0.719,-0.702 0.819,-1.656Z" style="fill:#dff3f4;"/><path d="M243.599,623.971c-0.524,-0.296 -0.573,-0.034 -1.134,-0.351c-0.169,-0.096 -0.144,-0.434 -0.333,-0.479c-0.27,-0.064 -0.542,0.297 -0.806,0.21c-0.202,-0.067 -0.102,-0.468 -0.289,-0.57c-0.625,-0.342 -1.362,-0.424 -2.021,-0.693c-10.246,-4.17 -17.236,-14.787 -17.293,-14.875c-7.285,-11.351 -6.257,-12.207 -5.306,-12.773c0.111,-0.066 46.566,-0.89 48.451,0.478c0.003,0.002 5.946,5.9 9.581,12.93c0.403,0.778 4.66,8.191 2.542,12.09c-1.983,3.649 -1.893,3.661 -2.113,3.943c-0.309,0.395 -1.043,0.264 -1.352,0.659c-2.23,0.17 -2.215,0.182 -2.408,0.184c-23.526,0.17 -25.373,-0.257 -27.518,-0.753Z" style="fill:#b0d4ea;"/><path d="M807.72,577.633c-1.726,7.698 -4.309,6.47 -20.345,6.413c-82.677,-0.294 -83.285,0.907 -86.125,-1.566c-2.3,-2.004 -5.377,-11.287 6.127,-11.264c94.737,0.184 95.524,-1.29 98.473,1.688c1.868,1.886 1.417,2.132 1.871,4.73Z" style="fill:#b4d8ec;"/><path d="M768.644,306.347c-5.946,-5.44 -1.085,-11.186 3.706,-11.637c1.403,-0.132 87.503,-0.061 91.286,0.026c10.658,0.246 8.938,10.389 3.597,12.47c-1.386,0.54 -1.446,0.57 -67.357,0.443c-26.309,-0.051 -26.517,0.717 -31.231,-1.302Z" style="fill:#b4d8ed;"/><path d="M401.825,493.526c0.413,-0.422 1.217,-3.271 8.026,-2.874c8.323,0.486 72.399,-0.055 90.029,0.165c10.655,0.133 8.273,12.135 1.219,12.842c-0.727,0.073 -90.502,-0.047 -93.719,-0.136c-3.473,-0.096 -9.241,-2.8 -5.555,-9.997Z" style="fill:#e4f4f6;"/><path d="M522.877,561.613c-3.003,3.881 -3.589,3.563 -11.752,3.585c-24.846,0.067 -85.205,0.476 -87.421,-0.339c-5.563,-2.045 -6.95,-12.472 3.664,-12.496c7.201,-0.016 86.801,-0.195 90.016,0.144c8.159,0.861 5.755,8.296 5.494,9.106Z" style="fill:#e3f4f6;"/><path d="M747.457,432.706c0.274,-0.177 1.17,-1.367 3.602,-1.808c0.285,-0.052 86.473,-0.323 88.891,-0.009c3.912,0.508 5.79,4.343 5.641,6.73c-0.488,7.788 -9.985,6.206 -10.714,6.204c-36.26,-0.139 -80.416,0.15 -81.251,0.137c-0.827,-0.013 -8.024,-0.129 -8.16,-6.342c-0.06,-2.761 0.518,-2.595 1.992,-4.911Z" style="fill:#b2d6eb;"/><path d="M384.939,436.233c-1.681,-1.279 -1.879,-1.071 -2.565,-2.358c-0.641,-1.201 -0.723,-1.152 -0.846,-2.53c-0.603,-6.794 6.302,-7.126 7.109,-7.165c3.234,-0.155 84.794,-0.044 86.239,-0.031c9.754,0.087 9.673,9.176 4.852,11.937c-1.489,0.853 -1.604,0.468 -51.103,0.757c-40.16,0.234 -40.286,0.204 -43.685,-0.611Z" style="fill:#6f78ed;"/><path d="M679.877,316.587c4.605,-0.055 4.576,-0.078 4.973,-0.059c3.222,0.151 1.094,7.259 -1.308,8.31c-1.091,0.477 -55.124,0.302 -59.917,0.286c-53.619,-0.174 -53.743,0.113 -54.694,-0.485c-1.243,-0.781 -0.56,-7.765 3.466,-7.977c0.598,-0.031 98.882,-0.072 107.48,-0.075Z" style="fill:#3ed2d7;"/><path d="M806.669,269.398c3.738,-2.558 4.104,-2.081 30.705,-2.109c41.774,-0.045 42.275,-0.551 44.824,1.793c3.016,2.774 3.871,11.304 -6.076,11.157c-36.323,-0.536 -64.634,0.558 -67.268,-0.669c-0.419,-0.195 -2.918,-1.359 -3.607,-4.514c-0.475,-2.177 1.199,-5.248 1.423,-5.658Z" style="fill:#b5d8ee;"/><path d="M699.871,256.094c4.713,0.04 4.932,-0.55 6.029,0.521c0.749,0.731 0.399,2.106 0.353,2.286c-1.216,4.782 -1.419,5.699 -6.37,5.698c-35.284,-0.009 -98.443,0.103 -108.804,-0.112c-2.469,-0.051 -2.974,-0.949 -2.437,-3.108c1.192,-4.796 2.181,-4.763 2.53,-4.886c1.703,-0.599 46.403,-0.101 108.699,-0.399Z" style="fill:#3dd0d2;"/><path d="M696.127,201.005c26.842,-0.023 26.956,-0.056 27.445,0.427c0.824,0.813 0.447,7.544 -3.676,7.72c-0.638,0.027 -88.114,0.032 -95.024,0.064c-18.264,0.084 -18.527,0.414 -19.641,-0.696c-0.863,-0.86 -0.532,-7.038 3.348,-7.518c0.643,-0.08 60.115,0.058 87.548,0.002Z" style="fill:#0c8d90;"/><path d="M664.942,383.893c-0.229,0.599 -0.069,3.6 -3.816,3.757c-2.618,0.11 -111.204,0.022 -111.262,0.007c-0.39,-0.101 -2.279,-0.366 0.023,-6.277c0.977,-2.509 1.883,-2.012 22.487,-1.993c7.2,0.007 73.207,0.069 89.995,-0.011c4.342,-0.021 2.945,2.757 2.573,4.517Z" style="fill:#3dcdd1;"/><path d="M517.375,612.645c32.192,0.255 33.716,-0.907 35.998,3.849c1.22,2.543 0.663,8.889 -5.976,9.061c-2.766,0.072 -61.193,0.161 -63.791,-0.278c-6.551,-1.109 -7.554,-12.106 2.519,-12.662c3.257,-0.18 11.835,0.015 31.25,0.031Z" style="fill:#e2f2f5;"/><path d="M922.825,397.419c-3.495,-7.35 -3.398,-7.366 -6.952,-14.68c-4.986,-10.26 6.261,-13.403 10.398,-6.452c4.875,8.19 5.218,16.03 10.244,11.837c16.657,-13.896 22.78,-25.201 29.328,-18.952c5.463,5.213 -2.444,11.1 -5.578,13.911c-10.527,9.441 -10.432,9.502 -20.639,19.275c-10.877,10.415 -13.991,1.061 -16.801,-4.937Z" style="fill:#21a2aa;"/><path d="M484.88,471.154c-22.103,0.237 -53.038,0.034 -56.228,-0.137c-6.916,-0.371 -7.588,-7.866 -4.919,-10.794c2.411,-2.645 4.388,-1.718 52.392,-1.765c10.493,-0.01 18.974,-1.509 18.949,6.663c-0.023,7.728 -10.037,6.032 -10.194,6.033Z" style="fill:#e2f4f6;"/><path d="M787.926,335.121c0.111,-0.649 0.102,-6.12 5.664,-6.639c1.921,-0.179 54.084,-0.017 58.787,-0.002c10.107,0.031 9.328,11.971 1.249,12.911c-0.924,0.108 -40.251,-0.038 -43.751,-0.051c-17.717,-0.066 -20.082,1.061 -21.949,-6.218Z" style="fill:#e2f3f5;"/><path d="M757.653,362.898c2.082,-1.338 2.045,-1.379 2.248,-1.445c2.378,-0.764 2.444,-0.42 31.224,-0.343c31.452,0.085 32.105,-0.614 34.408,2.044c3.181,3.67 0.818,7.584 0.481,8.142c-2.161,3.58 -5.106,2.557 -43.638,2.638c-19.926,0.042 -25.16,0.744 -26.438,-5.015c-0.718,-3.238 -0.036,-3.214 1.715,-6.022Z" style="fill:#e1f3f5;"/><path d="M786.13,477.213c-1.239,-0.078 -2.484,-0.004 -3.723,-0.082c-8.15,-0.51 -9.103,-12.586 1.228,-12.867c14.956,-0.406 45.985,-0.132 49.983,-0.097c10.684,0.094 9.35,12.563 1.235,13.168c-1.111,0.083 -44.825,-0.106 -48.723,-0.122Z" style="fill:#dcf2f3;"/><path d="M847.331,397.659c0.116,0.228 2.289,2.646 1.1,6.147c-1.743,5.131 -6.179,4.315 -22.307,4.327c-38.302,0.028 -38.408,-0.291 -39.603,-1.115c-4.165,-2.875 -4.306,-11.716 4.605,-11.736c48.288,-0.113 48.31,-0.579 52.446,0.126c2.344,0.4 3.683,2.196 3.759,2.253Z" style="fill:#e0f3f6;"/><path d="M828.469,546.302c-3.265,4.384 -4.197,3.555 -21.095,3.587c-38.051,0.072 -38.15,0 -40.016,-0.986c-3.922,-2.072 -5.388,-11.76 5,-11.863c4.107,-0.041 47.902,-0.474 51.344,0.125c0.517,0.09 2.93,0.405 4.595,3.137c1.185,1.945 0.288,5.534 0.172,5.999Z" style="fill:#dcf1f2;"/><path d="M711.141,621.222c-0.384,-0.111 -0.8,-0.082 -1.184,-0.193c-6.623,-1.913 -6.058,-11.074 -0.143,-12.438c1.818,-0.419 52.127,-0.18 52.591,-0.159c9.041,0.415 10.115,12.94 -1.279,12.907c-46.014,-0.134 -45.988,0.022 -49.984,-0.118Z" style="fill:#dff3f3;"/><path d="M494.87,533.608c-35.611,0.312 -35.629,0.459 -38.685,-0.035c-7.432,-1.202 -7.585,-12.464 1.177,-12.608c1.026,-0.017 36.698,-0.007 45.024,-0.063c0.542,-0.004 7.128,-0.873 8.502,5.505c0.766,3.557 -2.019,5.675 -2.43,5.988c-1.768,1.345 -6.879,1.138 -13.588,1.213Z" style="fill:#727bec;"/><path d="M486.122,597.214c-39.243,0.007 -40.05,0.484 -42.226,-1.185c-4.1,-3.144 -4.032,-11.261 4.712,-11.352c3.908,-0.041 46.256,-0.48 48.849,0.1c3.536,0.79 5.772,5.203 3.77,9.151c-2.006,3.956 -8.154,3.248 -15.105,3.286Z" style="fill:#737deb;"/><path d="M562.646,202.713c0.801,-2.169 0.663,-3.135 4.745,-3.094c18.503,0.187 18.529,-0.254 20.089,0.133c2.909,0.722 1.245,2.417 -2.972,17.767c-1.593,5.798 -1.121,7.588 -7.133,7.647c-19.191,0.187 -19.862,0.414 -20.299,-1.153c-0.307,-1.103 2.385,-10.104 5.57,-21.3Z" style="fill:#356188;"/><path d="M506.567,382.774c0.871,-2.38 0.825,-2.385 0.941,-2.571c0.95,-1.524 1.359,-1.444 19.866,-1.438c4.188,0.001 6.25,-0.162 4.989,3.856c-1.38,4.397 -5.329,18.584 -6.385,19.895c-1.122,1.393 -1.431,1.445 -22.33,1.002c-2.757,-0.058 -2.703,-1.674 -2.239,-3.331c2.453,-8.755 2.669,-8.658 5.159,-17.414Z" style="fill:#2c9398;"/><path d="M544.428,400.01c1.498,-4.924 2.806,-4.129 7.943,-4.262c4.285,-0.111 59.41,-0.123 59.978,-0.09c3.091,0.182 2.392,2.868 2.312,3.172c-1.161,4.461 -1.431,5.223 -6.037,5.215c-57.539,-0.102 -57.51,0.096 -62.507,-0.095c-2.768,-0.106 -2.231,-1.253 -1.689,-3.941Z" style="fill:#199c9f;"/><path d="M319.498,577.612c-0.781,6.301 -0.729,6.289 -2.192,12.491c-2.487,-0.145 -2.439,0.203 -4.925,0.151c-0.985,-0.021 -24.976,0.096 -32.509,-0.082c-9.433,-0.222 -8.939,-9.783 -3.642,-12.259c2.512,-1.174 39.174,-0.432 43.267,-0.301Z" style="fill:#def2f4;"/><path d="M567.376,341.504c-0.851,-0.024 -6.309,1.157 -2.602,-6.44c0.949,-1.944 1.834,-1.623 18.847,-1.671c3.905,-0.011 45.851,-0.131 48.819,-0.026c4.806,0.17 0.533,7.364 -0.198,7.801c-1.485,0.888 -7.57,0.337 -29.867,0.393c-2.8,0.007 -24.444,0.06 -35,-0.056Z" style="fill:#16a0a1;"/><path d="M587.366,280.876c-2.984,-0.011 -4.577,-0.269 -3.246,-4.331c1.48,-4.518 2.844,-3.717 10.756,-3.785c8.057,-0.069 58.496,-0.058 58.712,-0.003c2.269,0.572 0.877,7.315 -2.534,8.109c-0.842,0.196 -58.593,0.025 -63.688,0.01Z" style="fill:#199b9d;"/><path d="M603.627,225.255c-1.774,-0.091 -4.54,0.671 -3.283,-3.729c0.993,-3.475 0.948,-4.258 4.526,-4.324c4.349,-0.081 60.869,-0.182 63.801,-0.07c2.733,0.105 2.818,1.67 1.461,5.592c-1.059,3.061 -2.18,2.445 -22.757,2.427c-10.574,-0.009 -10.559,0.007 -43.748,0.104Z" style="fill:#39668e;"/><path d="M738.68,513.57c-0.488,-0.206 -1.022,-0.293 -1.51,-0.5c-3.362,-1.421 -5.215,-6.96 -1.3,-10.724c1.82,-1.749 2.202,-2.117 31.498,-1.84c9.73,0.092 9.5,10.93 2.397,12.964c-1.947,0.558 -27.544,0.384 -31.084,0.099Z" style="fill:#ddf2f4;"/><path d="M548.904,315.75c-4.601,6.372 -5.405,5.588 -10.851,11.307c-3.098,3.254 -3.311,0.026 -5.012,-4.126c-1.169,-2.855 -5.269,-1.816 -3.959,2.041c3.198,9.418 4.948,9.307 5.821,9.252c2.584,-0.164 5.689,-5.207 13.287,-10.643c0.406,0.968 0.92,0.58 1.325,1.544c0.036,0.085 0.036,0.086 -0.199,1.137c-0.226,1.011 -1.528,6.825 -3.599,12.441c-0.916,2.484 -2.277,2.265 -22.123,2.021c-4.778,-0.059 -2.441,-4.134 -2.387,-4.328c0.902,-3.233 0.929,-3.179 1.868,-6.424c3.701,-12.791 3.093,-14.882 6.793,-15.044c1.881,-0.082 14.623,-0.082 14.991,-0.054c2.346,0.174 2.319,-0.238 2.515,-0.188c0.602,0.152 0.927,0.911 1.529,1.064Z" style="fill:#2a9397;"/><path d="M567.47,256.664c-4.06,5.799 -4.687,5.213 -9.702,10.177c-4.743,4.694 -3.259,-6.872 -7.728,-5.07c-0.268,0.108 -1.566,1.234 -0.936,3.193c0.212,0.659 2.943,7.736 3.685,8.536c2.965,3.2 9.665,-6.894 15.366,-9.939c0.298,0.591 1.051,0.866 1.348,1.456c0.487,0.965 -1.858,8.179 -2.083,8.873c-1.602,4.931 -1.117,6.514 -6.307,6.527c-19.036,0.047 -20.304,0.319 -20.785,-1.592c-0.05,-0.198 5.443,-21.764 6.926,-22.611c1.589,-0.908 4.262,-0.722 5.119,-0.73c9.998,-0.088 11.342,-0.069 15.097,1.179Z" style="fill:#2d9d9e;"/><path d="M548.904,315.75c2.674,-1.857 2.69,-1.788 5.068,-4.02c0.26,-0.244 2.836,-2.661 4.284,-1.24c2.056,2.017 -2.824,5.487 -3.327,5.946c-3.698,3.378 -3.211,3.819 -6.738,7.145c-7.598,5.436 -10.703,10.479 -13.287,10.643c-0.873,0.055 -2.623,0.166 -5.821,-9.252c-1.31,-3.857 2.79,-4.896 3.959,-2.041c1.7,4.152 1.913,7.38 5.012,4.126c5.446,-5.719 6.25,-4.935 10.851,-11.307Z" style="fill:#6ae9ea;"/><path d="M567.47,256.664c0.284,-0.147 1.855,-0.312 5.994,-4.204c0.272,-0.256 2.993,-2.815 4.353,-1.681c2.436,2.031 -1.268,4.24 -4.109,6.934c-3.225,3.059 -2.917,3.782 -5.554,5.848c-5.701,3.045 -12.4,13.139 -15.366,9.939c-0.742,-0.8 -3.472,-7.877 -3.685,-8.536c-0.63,-1.959 0.667,-3.085 0.936,-3.193c4.469,-1.803 2.985,9.763 7.728,5.07c5.015,-4.963 5.641,-4.377 9.702,-10.177Z" style="fill:#65e8e7;"/><path d="M757.539,332.695c0.19,-0.296 0.236,-0.669 0.425,-0.965c3.077,-4.806 9.13,-3.037 10.793,-0.457c5.223,8.106 -5.987,14.661 -10.889,7.292c-1.224,-1.841 -0.431,-5.41 -0.329,-5.869Z" style="fill:#def2f5;"/><path d="M686.541,611.205c0.079,0.384 1.424,2.832 -0.521,6.357c-3.347,6.066 -14.286,2.022 -11.306,-6.249c1.088,-3.018 7.602,-7.646 11.827,-0.108Z" style="fill:#afd7eb;"/><path d="M722.796,539.02c0.261,-0.478 0.437,-0.999 0.698,-1.477c1.856,-3.402 8.201,-4.597 11.101,0.229c3.432,5.711 -4.028,12.929 -9.582,8.429c-3.684,-2.985 -2.242,-7.001 -2.217,-7.181Z" style="fill:#def4f5;"/><path d="M752.615,467.503c0.232,0.871 1.622,2.985 -0.199,6.398c-3.265,6.121 -14.526,2.191 -11.194,-6.235c1.577,-3.986 7.375,-5.571 10.864,-1.081c0.217,0.279 0.312,0.639 0.529,0.917Z" style="fill:#e0f4f6;"/><path d="M779.13,273.871c0.02,-0.089 0.039,-3.773 3.506,-5.713c1.43,-0.8 4.299,-0.806 5.749,-0.025c8.014,4.315 0.866,15.5 -5.801,11.594c-3.123,-1.83 -2.745,-2.311 -3.454,-5.856Z" style="fill:#e0f2f4;"/><path d="M754.683,406.537c-4.698,-7.2 2.361,-11.33 6.463,-10.239c9.597,2.553 2.878,19.066 -6.463,10.239Z" style="fill:#b7d9ea;"/><path d="M419.967,536.534c-0.909,0.275 -2.449,1.444 -5.29,0.189c-5.558,-2.456 -4.488,-12.621 2.691,-12.392c5.223,0.167 8.387,7.374 3.444,11.65c-0.255,0.22 -0.59,0.333 -0.845,0.554Z" style="fill:#e4f4f7;"/><path d="M398.251,472.191c-11.534,6.274 -13.175,-10.381 -4.687,-11.293c5.557,-0.598 8.737,6.333 5.808,10.103c-0.334,0.43 -0.787,0.76 -1.121,1.19Z" style="fill:#7375f0;"/><path d="M532.07,582.428c-0.857,1.335 -9.584,14.935 -11.978,15.797c-0.66,0.238 -5.789,0.164 -1.717,-5.759c3.392,-4.934 9.573,-12.883 10.341,-13.446c1.902,-1.395 3.148,-0.048 3.329,0.148c1.144,1.237 0.413,1.409 0.025,3.26Z" style="fill:#e4f4f6;"/><path d="M838.484,371.278c4.057,-5.429 4.115,-5.321 8.18,-10.709c4.04,-5.356 6.141,-2.695 6.554,-1.58c0.883,2.385 -11.58,16.648 -12.247,17.163c-1.687,1.302 -3.62,0.16 -3.871,-0.926c-0.496,-2.15 0.309,-1.998 1.384,-3.947Z" style="fill:#abd9e6;"/><path d="M798.525,502.551c0.377,-0.493 3.902,-5.108 5.263,-5.698c0.529,-0.229 5.863,-0.152 0.087,7.209c-7.009,8.934 -10.246,14.918 -12.732,12.293c-2.247,-2.373 1.482,-6.03 7.382,-13.805Z" style="fill:#addbe8;"/><path d="M607.028,507.366c-2.297,2.007 -2.127,2.339 -3.274,2.471c-1.316,0.152 -1.021,-4.781 2.348,-5.653c0.208,-0.054 2.168,-0.561 1.461,2.257c-0.087,0.345 -0.449,0.579 -0.535,0.924Z" style="fill:#8286ee;"/><path d="M544.555,504.354c0.084,-0.546 -0.066,-1.11 0.018,-1.656c0.401,-2.601 3.871,-4.748 3.883,-2.532c0.012,2.295 -0.764,1.957 -2.381,3.562c-0.343,0.341 -0.547,0.872 -0.994,1.056c-0.21,0.086 -0.317,-0.517 -0.526,-0.431Z" style="fill:#7a7feb;"/></g></svg>